<svg width="600" height="600" viewBox="0 0 600 600" fill="none" xmlns="http://www.w3.org/2000/svg">
<mask id="mask0_2840_854" style="mask-type:luminance" maskUnits="userSpaceOnUse" x="0" y="0" width="600" height="600">
<path d="M440 0H160C71.6344 0 0 71.6344 0 160V440C0 528.366 71.6344 600 160 600H440C528.366 600 600 528.366 600 440V160C600 71.6344 528.366 0 440 0Z" fill="white"/>
</mask>
<g mask="url(#mask0_2840_854)">
<path d="M440 0H160C71.6344 0 0 71.6344 0 160V440C0 528.366 71.6344 600 160 600H440C528.366 600 600 528.366 600 440V160C600 71.6344 528.366 0 440 0Z" fill="#547BCA"/>
<path d="M320.241 704.023C426.22 810.001 598.044 810.001 704.022 704.023C810 598.045 810 426.22 704.022 320.242C598.044 214.264 426.22 214.264 320.241 320.242C214.263 426.22 214.263 598.045 320.241 704.023Z" fill="#E42421"/>
<path d="M-104.023 320.241C-210.001 426.22 -210.001 598.044 -104.023 704.022C1.95539 810 173.78 810 279.758 704.022C385.736 598.044 385.736 426.22 279.758 320.241C173.78 214.263 1.95539 214.263 -104.023 320.241Z" fill="#F08118"/>
<path d="M-104.023 279.758C1.95492 385.736 173.779 385.736 279.758 279.758C385.736 173.78 385.736 1.95542 279.758 -104.023C173.779 -210.001 1.95493 -210.001 -104.023 -104.023C-210.001 1.95542 -210.001 173.78 -104.023 279.758Z" fill="#0A9AD7"/>
<path d="M320.241 -104.022C214.263 1.95594 214.263 173.78 320.241 279.759C426.219 385.737 598.044 385.737 704.022 279.759C810 173.78 810 1.95589 704.022 -104.022C598.044 -210 426.219 -210 320.241 -104.022Z" fill="#288739"/>
<mask id="mask1_2840_854" style="mask-type:alpha" maskUnits="userSpaceOnUse" x="239" y="240" width="544" height="544">
<path d="M318.989 704.023C424.967 810.001 596.791 810.001 702.769 704.023C808.747 598.045 808.747 426.22 702.769 320.242C596.791 214.264 424.967 214.264 318.988 320.242C213.01 426.22 213.01 598.045 318.989 704.023Z" fill="#E42421"/>
</mask>
<g mask="url(#mask1_2840_854)">
<path d="M599.999 187H331.999V422H599.999V187Z" fill="#E42421"/>
</g>
<g filter="url(#filter0_d_2840_854)">
<path d="M312.595 494.655C426.425 494.655 518.702 402.378 518.702 288.548C518.702 174.719 426.425 82.4414 312.595 82.4414C198.766 82.4414 106.488 174.719 106.488 288.548C106.488 402.378 198.766 494.655 312.595 494.655Z" fill="#D4F000"/>
<path d="M312.595 494.655C426.425 494.655 518.702 402.378 518.702 288.548C518.702 174.719 426.425 82.4414 312.595 82.4414C198.766 82.4414 106.488 174.719 106.488 288.548C106.488 402.378 198.766 494.655 312.595 494.655Z" fill="url(#paint0_radial_2840_854)" fill-opacity="0.5"/>
</g>
<mask id="mask2_2840_854" style="mask-type:alpha" maskUnits="userSpaceOnUse" x="106" y="82" width="413" height="413">
<path d="M312.595 494.655C426.425 494.655 518.702 402.378 518.702 288.548C518.702 174.719 426.425 82.4414 312.595 82.4414C198.766 82.4414 106.488 174.719 106.488 288.548C106.488 402.378 198.766 494.655 312.595 494.655Z" fill="#CEE611"/>
</mask>
<g mask="url(#mask2_2840_854)">
<path d="M504.486 96.6579C545.296 137.468 577.043 180.221 595.242 216.619C604.316 234.767 610.293 251.871 612.049 266.69C613.788 281.361 611.544 295.655 601.646 305.552C591.749 315.449 577.456 317.694 562.784 315.955C547.965 314.199 530.861 308.222 512.713 299.148C476.315 280.948 433.562 249.202 392.752 208.392C351.942 167.582 320.196 124.83 301.997 88.4316C292.923 70.2834 286.946 53.1797 285.19 38.361C283.451 23.6891 285.696 9.39562 295.593 -0.501606C305.49 -10.3987 319.783 -12.6433 334.455 -10.9045C349.274 -9.14825 366.378 -3.17098 384.526 5.9031C420.924 24.1021 463.676 55.8479 504.486 96.6579Z" stroke="white" stroke-width="20.6107"/>
<path d="M232.439 368.705C273.249 409.515 304.995 452.268 323.194 488.666C332.268 506.814 338.246 523.918 340.002 538.737C341.741 553.408 339.496 567.702 329.599 577.599C319.702 587.496 305.408 589.741 290.736 588.002C275.918 586.246 258.814 580.268 240.666 571.194C204.268 552.995 161.515 521.25 120.705 480.439C79.8948 439.629 48.149 396.877 29.95 360.479C20.8759 342.33 14.8986 325.227 13.1424 310.408C11.4036 295.736 13.6481 281.443 23.5453 271.545C33.4425 261.648 47.736 259.405 62.4079 261.144C77.2266 262.9 94.3303 268.876 112.479 277.95C148.877 296.149 191.629 327.895 232.439 368.705Z" stroke="white" stroke-width="20.6107"/>
</g>
<path d="M258.772 262.459C276.91 298.104 306.131 327.199 341.776 345.463L364.116 323.123C367.516 319.722 372.555 318.589 376.963 320.1C381.371 321.612 416.65 327.28 421.929 327.28C428.856 327.28 434.524 332.948 434.524 339.875V369.52C434.524 378.108 397.31 395.45 384.142 393.106C292.38 376.773 220.856 302.006 209.409 208.642C208.076 197.764 227.845 169.711 238.15 169.711H264.486C271.413 169.711 277.081 175.379 277.081 182.306C277.081 189.234 282.099 220.394 284.261 227.272C285.646 231.68 284.639 236.593 281.112 240.119L258.772 262.459Z" fill="#304C04"/>
<path d="M129.184 374.428H224.428V469.672L105.829 507.41C96.9745 510.227 88.6282 501.881 91.4456 493.026L129.184 374.428Z" fill="url(#paint1_linear_2840_854)"/>
</g>
<defs>
<filter id="filter0_d_2840_854" x="24.0456" y="18.3193" width="558.779" height="558.779" filterUnits="userSpaceOnUse" color-interpolation-filters="sRGB">
<feFlood flood-opacity="0" result="BackgroundImageFix"/>
<feColorMatrix in="SourceAlpha" type="matrix" values="0 0 0 0 0 0 0 0 0 0 0 0 0 0 0 0 0 0 127 0" result="hardAlpha"/>
<feOffset dx="-9.16031" dy="9.16031"/>
<feGaussianBlur stdDeviation="36.6412"/>
<feComposite in2="hardAlpha" operator="out"/>
<feColorMatrix type="matrix" values="0 0 0 0 0 0 0 0 0 0 0 0 0 0 0 0 0 0 0.2 0"/>
<feBlend mode="normal" in2="BackgroundImageFix" result="effect1_dropShadow_2840_854"/>
<feBlend mode="normal" in="SourceGraphic" in2="effect1_dropShadow_2840_854" result="shape"/>
</filter>
<radialGradient id="paint0_radial_2840_854" cx="0" cy="0" r="1" gradientUnits="userSpaceOnUse" gradientTransform="translate(469.466 150.571) rotate(139.389) scale(365.014 365.014)">
<stop stop-color="#F7FF9C"/>
<stop offset="1" stop-color="#F7FF9C" stop-opacity="0"/>
</radialGradient>
<linearGradient id="paint1_linear_2840_854" x1="180.992" y1="419.956" x2="101.448" y2="502.117" gradientUnits="userSpaceOnUse">
<stop offset="0.105769" stop-color="#D4F000" stop-opacity="0.75"/>
<stop offset="1" stop-color="#CEE611" stop-opacity="0.4"/>
</linearGradient>
</defs>
</svg>
