<svg width="420" height="420" viewBox="102 78 420 420" fill="none" xmlns="http://www.w3.org/2000/svg">
<circle cx="312.595" cy="288.549" r="206.107" fill="#D4F000"/>
<circle cx="312.595" cy="288.549" r="206.107" fill="url(#paint0_radial_yellow)" fill-opacity="0.5"/>
<mask id="mask1_yellow" style="mask-type:alpha" maskUnits="userSpaceOnUse" x="106" y="82" width="413" height="413">
<circle cx="312.595" cy="288.549" r="206.107" fill="#D4F000"/>
</mask>
<g mask="url(#mask1_yellow)">
<path d="M504.486 96.6581C545.296 137.468 577.043 180.221 595.242 216.619C604.316 234.767 610.293 251.871 612.049 266.69C613.788 281.361 611.544 295.655 601.646 305.552C591.749 315.449 577.456 317.694 562.784 315.955C547.965 314.199 530.861 308.222 512.713 299.148C476.315 280.948 433.562 249.202 392.752 208.392C351.942 167.582 320.196 124.83 301.997 88.4318C292.923 70.2836 286.946 53.1799 285.19 38.3612C283.451 23.6893 285.696 9.39583 295.593 -0.501396C305.49 -10.3985 319.783 -12.6431 334.455 -10.9043C349.274 -9.14804 366.378 -3.17077 384.526 5.90331C420.924 24.1023 463.676 55.8481 504.486 96.6581Z" stroke="white" stroke-width="20.6107"/>
<path d="M232.439 368.706C273.249 409.516 304.995 452.269 323.194 488.667C332.268 506.815 338.246 523.919 340.002 538.738C341.741 553.409 339.496 567.703 329.599 577.6C319.702 587.497 305.408 589.742 290.736 588.003C275.918 586.247 258.814 580.269 240.666 571.195C204.268 552.996 161.515 521.25 120.705 480.44C79.8949 439.63 48.1491 396.878 29.9501 360.48C20.876 342.331 14.8987 325.228 13.1425 310.409C11.4037 295.737 13.6482 281.444 23.5454 271.546C33.4426 261.649 47.7361 259.405 62.408 261.144C77.2267 262.9 94.3304 268.877 112.479 277.951C148.877 296.15 191.629 327.896 232.439 368.706Z" stroke="white" stroke-width="20.6107"/>
</g>
<defs>
<radialGradient id="paint0_radial_yellow" cx="0" cy="0" r="1" gradientUnits="userSpaceOnUse" gradientTransform="translate(469.466 150.572) rotate(139.389) scale(365.014)">
<stop stop-color="#F7FF9C"/>
<stop offset="1" stop-color="#F7FF9C" stop-opacity="0"/>
</radialGradient>
</defs>
</svg>
