<svg width="907" height="168" viewBox="0 0 907 168" fill="none" xmlns="http://www.w3.org/2000/svg">
<g clip-path="url(#clip0_4_237)">
<rect width="168" height="168" rx="44.8" fill="#547BCA"/>
<circle cx="143.397" cy="143.397" r="75.9847" transform="rotate(45 143.397 143.397)" fill="#E42421"/>
<circle cx="24.6031" cy="143.396" r="75.9847" transform="rotate(135 24.6031 143.396)" fill="#F08118"/>
<circle cx="24.603" cy="24.6032" r="75.9847" transform="rotate(45 24.603 24.6032)" fill="#0A9AD7"/>
<circle cx="143.397" cy="24.6035" r="75.9847" transform="rotate(135 143.397 24.6035)" fill="#288739"/>
<mask id="mask0_4_237" style="mask-type:alpha" maskUnits="userSpaceOnUse" x="67" y="67" width="153" height="153">
<circle cx="143.047" cy="143.397" r="75.9847" transform="rotate(45 143.047 143.397)" fill="#E42421"/>
</mask>
<g mask="url(#mask0_4_237)">
<rect x="92.96" y="52.3604" width="75.04" height="65.8" fill="#E42421"/>
</g>
<g filter="url(#filter0_d_4_237)">
<circle cx="87.5266" cy="80.7939" r="57.7099" fill="#D4F000"/>
<circle cx="87.5266" cy="80.7939" r="57.7099" fill="url(#paint0_radial_4_237)" fill-opacity="0.5"/>
</g>
<mask id="mask1_4_237" style="mask-type:alpha" maskUnits="userSpaceOnUse" x="29" y="23" width="117" height="116">
<circle cx="87.5266" cy="80.7939" r="57.7099" fill="#CEE611"/>
</mask>
<g mask="url(#mask1_4_237)">
<path d="M141.257 27.0644C152.684 38.4913 161.573 50.4619 166.668 60.6534C169.209 65.7349 170.883 70.5241 171.374 74.6733C171.861 78.7813 171.233 82.7835 168.462 85.5547C165.691 88.3259 161.688 88.9542 157.58 88.4674C153.431 87.9757 148.642 86.3021 143.56 83.7614C133.369 78.6657 121.398 69.7766 109.971 58.3498C98.5446 46.9229 89.6556 34.9523 84.5598 24.7608C82.0191 19.6794 80.3456 14.8901 79.8538 10.7409C79.3671 6.63289 79.9954 2.63061 82.7665 -0.140538C85.5377 -2.91157 89.5399 -3.54006 93.6479 -3.05321C97.7972 -2.56146 102.586 -0.887965 107.668 1.65278C117.859 6.74851 129.83 15.6376 141.257 27.0644Z" stroke="white" stroke-width="5.77099"/>
<path d="M65.0835 103.238C76.5103 114.665 85.3994 126.636 90.4951 136.827C93.0359 141.909 94.7094 146.698 95.2011 150.847C95.688 154.955 95.0595 158.957 92.2884 161.729C89.5173 164.5 85.515 165.128 81.407 164.641C77.2578 164.149 72.4685 162.476 67.3871 159.935C57.1956 154.84 45.225 145.95 33.7981 134.524C22.3713 123.097 13.4822 111.126 8.38649 100.935C5.84579 95.8532 4.17224 91.0639 3.6805 86.9147C3.19371 82.8067 3.82203 78.8044 6.59317 76.0333C9.36439 73.2623 13.3666 72.6338 17.4746 73.1206C21.6239 73.6124 26.413 75.2859 31.4945 77.8266C41.686 82.9223 53.6566 91.8114 65.0835 103.238Z" stroke="white" stroke-width="5.77099"/>
</g>
<path d="M72.456 73.489C77.5345 83.4696 85.7165 91.6163 95.6971 96.7301L101.952 90.475C102.904 89.5227 104.315 89.2053 105.549 89.6285C106.784 90.0518 116.662 91.6388 118.14 91.6388C120.08 91.6388 121.667 93.2258 121.667 95.1655V103.466C121.667 105.871 111.247 110.726 107.56 110.07C81.8662 105.497 61.8396 84.562 58.6344 58.4203C58.261 55.3745 63.7963 47.5195 66.6818 47.5195H74.0558C75.9955 47.5195 77.5826 49.1066 77.5826 51.0462C77.5826 52.9859 78.9876 61.7109 79.5928 63.6366C79.9807 64.871 79.6986 66.2464 78.7111 67.2339L72.456 73.489Z" fill="#304C04"/>
<path d="M36.1713 104.84H62.8396V131.508L29.632 142.075C27.1527 142.864 24.8158 140.527 25.6047 138.047L36.1713 104.84Z" fill="url(#paint1_linear_4_237)"/>
</g>
<path d="M237.594 85.6729H232.474L231.993 78.3926C231.14 79.7792 230.019 81.1126 228.633 82.3926C227.299 83.6725 225.646 84.7127 223.673 85.5127C221.753 86.2593 219.513 86.6328 216.953 86.6328C213.06 86.6328 209.646 85.7264 206.713 83.9131C203.833 82.0464 201.593 79.5124 199.993 76.3125C198.393 73.1126 197.593 69.4858 197.593 65.4326C197.593 61.3794 198.393 57.7794 199.993 54.6328C201.593 51.433 203.86 48.9266 206.793 47.1133C209.726 45.3 213.14 44.3926 217.033 44.3926C220.446 44.3926 223.433 45.1395 225.993 46.6328C228.606 48.0728 230.606 50.1263 231.993 52.793V28.0732H237.594V85.6729ZM267.203 44.3926C271.096 44.3927 274.376 45.2733 277.043 47.0332C279.763 48.7932 281.817 51.0866 283.203 53.9131C284.643 56.7395 285.362 59.8327 285.362 63.1924V64.873C285.362 65.4063 285.336 66.0464 285.282 66.793H253.466C253.586 69.9243 254.217 72.5645 255.362 74.7129C256.642 77.1129 258.322 78.8999 260.402 80.0732C262.536 81.2466 264.75 81.833 267.043 81.833C270.083 81.833 272.589 81.1662 274.562 79.833C276.536 78.4464 277.949 76.5531 278.803 74.1533H284.322C283.629 76.4997 282.509 78.6329 280.963 80.5527C279.47 82.4727 277.55 83.9665 275.203 85.0332C272.857 86.0998 270.136 86.6328 267.043 86.6328C263.31 86.6328 260.003 85.753 257.123 83.9932C254.296 82.2332 252.056 79.7795 250.402 76.6328C248.802 73.4328 248.003 69.6992 248.003 65.4326C248.003 61.1661 248.802 57.4591 250.402 54.3125C252.002 51.1659 254.243 48.7398 257.123 47.0332C260.056 45.2733 263.417 44.3926 267.203 44.3926ZM347.882 44.3926C351.882 44.3926 355.376 45.2732 358.362 47.0332C361.349 48.7932 363.669 51.1668 365.322 54.1533C366.975 57.1398 367.802 60.5262 367.802 64.3125V66.1533C367.802 66.7932 367.748 67.4602 367.642 68.1533H337.919C338.034 69.8815 338.422 71.4282 339.082 72.793C339.935 74.3928 341.108 75.6461 342.602 76.5527C344.095 77.406 345.829 77.833 347.802 77.833C349.775 77.833 351.402 77.406 352.682 76.5527C354.015 75.6994 355.002 74.6058 355.642 73.2725H366.682C365.935 75.7791 364.682 78.0466 362.922 80.0732C361.162 82.0997 359.002 83.6998 356.442 84.873C353.882 86.0464 351.029 86.6328 347.882 86.6328C343.829 86.6328 340.229 85.7798 337.082 84.0732C333.989 82.3132 331.562 79.8863 329.802 76.793C328.095 73.6464 327.242 70.0196 327.242 65.9131C327.242 61.6998 328.095 57.9929 329.802 54.793C331.562 51.5396 333.989 49.0057 337.082 47.1924C340.175 45.3258 343.775 44.3926 347.882 44.3926ZM512.79 44.3926C517.643 44.3926 521.484 45.4862 524.311 47.6729C527.137 49.8595 528.817 52.873 529.351 56.7129H519.19C518.87 55.4863 518.15 54.5263 517.03 53.833C515.964 53.0863 514.523 52.7129 512.71 52.7129C510.79 52.7129 509.324 53.0597 508.311 53.7529C507.297 54.4462 506.79 55.3527 506.79 56.4727C506.79 57.2193 507.11 57.886 507.75 58.4727C508.443 59.0593 509.403 59.5665 510.63 59.9932C511.857 60.3665 513.35 60.7399 515.11 61.1133C518.204 61.7533 520.924 62.4992 523.271 63.3525C525.617 64.1525 527.457 65.3264 528.79 66.873C530.123 68.3663 530.79 70.5528 530.79 73.4326C530.79 75.9926 530.097 78.2859 528.71 80.3125C527.323 82.2858 525.35 83.8331 522.79 84.9531C520.283 86.0731 517.297 86.6328 513.83 86.6328C510.15 86.6328 506.95 86.0463 504.23 84.873C501.511 83.6997 499.377 82.0731 497.83 79.9932C496.283 77.9132 495.404 75.5663 495.19 72.9531H505.91C506.177 73.9664 506.631 74.8997 507.271 75.7529C507.91 76.5528 508.764 77.1929 509.83 77.6729C510.897 78.1528 512.177 78.3926 513.67 78.3926C515.11 78.3926 516.284 78.2063 517.19 77.833C518.097 77.4064 518.764 76.8465 519.19 76.1533C519.67 75.4601 519.91 74.7397 519.91 73.9932C519.91 72.8732 519.59 72.0193 518.95 71.4326C518.31 70.7927 517.377 70.2864 516.15 69.9131C514.924 69.5398 513.43 69.1663 511.67 68.793C509.75 68.4196 507.857 67.9659 505.99 67.4326C504.177 66.846 502.55 66.1258 501.11 65.2725C499.67 64.4192 498.523 63.3264 497.67 61.9932C496.817 60.6599 496.391 59.0064 496.391 57.0332C496.391 54.6332 497.031 52.4995 498.311 50.6328C499.591 48.7129 501.457 47.1932 503.91 46.0732C506.363 44.9533 509.323 44.3926 512.79 44.3926ZM581.769 85.6729H572.168L570.969 80.1533C570.169 81.2732 569.155 82.3393 567.929 83.3525C566.755 84.3658 565.342 85.1663 563.688 85.7529C562.035 86.3396 560.088 86.6328 557.849 86.6328C554.169 86.6328 550.862 85.7262 547.929 83.9131C545.049 82.0998 542.781 79.5926 541.128 76.3926C539.475 73.1927 538.648 69.5926 538.648 65.5928C538.648 61.4862 539.475 57.8595 541.128 54.7129C542.835 51.5129 545.155 49.0057 548.088 47.1924C551.074 45.3258 554.408 44.3926 558.088 44.3926C560.968 44.3926 563.502 44.9265 565.688 45.9932C567.875 47.0598 569.635 48.5795 570.969 50.5527V28.0732H581.769V85.6729ZM609.87 44.3926C613.763 44.3926 617.231 45.2999 620.271 47.1133C623.364 48.8732 625.79 51.353 627.55 54.5527C629.363 57.6994 630.27 61.3528 630.271 65.5127C630.271 69.6727 629.363 73.3527 627.55 76.5527C625.79 79.6993 623.364 82.1798 620.271 83.9932C617.177 85.7532 613.683 86.6328 609.79 86.6328C605.95 86.6328 602.484 85.753 599.391 83.9932C596.351 82.1798 593.924 79.6994 592.11 76.5527C590.35 73.3527 589.47 69.6994 589.47 65.5928C589.47 61.3795 590.35 57.6994 592.11 54.5527C593.924 51.353 596.377 48.8732 599.47 47.1133C602.563 45.3 606.03 44.3926 609.87 44.3926ZM736.382 44.3926C740.382 44.3926 743.876 45.2732 746.862 47.0332C749.849 48.7932 752.169 51.1668 753.822 54.1533C755.475 57.1398 756.302 60.5262 756.302 64.3125V66.1533C756.302 66.7932 756.248 67.4602 756.142 68.1533H726.419C726.534 69.8815 726.922 71.4282 727.582 72.793C728.435 74.3928 729.608 75.6461 731.102 76.5527C732.595 77.406 734.329 77.833 736.302 77.833C738.275 77.833 739.902 77.406 741.182 76.5527C742.515 75.6994 743.502 74.6058 744.142 73.2725H755.182C754.435 75.7791 753.182 78.0466 751.422 80.0732C749.662 82.0997 747.502 83.6998 744.942 84.873C742.382 86.0464 739.529 86.6328 736.382 86.6328C732.329 86.6328 728.729 85.7798 725.582 84.0732C722.489 82.3132 720.062 79.8863 718.302 76.793C716.595 73.6464 715.742 70.0197 715.742 65.9131C715.742 61.6998 716.595 57.9929 718.302 54.793C720.062 51.5396 722.489 49.0057 725.582 47.1924C728.675 45.3258 732.275 44.3926 736.382 44.3926ZM816.226 58.8408C819.415 58.8409 822.084 59.673 824.233 61.3369C826.383 63.0009 827.752 65.2541 828.342 68.0967H822.934C822.587 66.5714 821.789 65.3925 820.541 64.5605C819.328 63.7287 817.871 63.3125 816.173 63.3125C814.786 63.3126 813.504 63.6773 812.325 64.4053C811.147 65.0986 810.193 66.1379 809.465 67.5244C808.772 68.8764 808.426 70.5587 808.426 72.5693C808.426 74.0598 808.634 75.3947 809.05 76.5732C809.466 77.7168 810.02 78.6872 810.713 79.4844C811.441 80.2816 812.273 80.8887 813.209 81.3047C814.145 81.686 815.133 81.8769 816.173 81.877C817.317 81.877 818.34 81.7031 819.241 81.3564C820.177 80.9751 820.957 80.4204 821.581 79.6924C822.24 78.9644 822.691 78.098 822.934 77.0928H828.342C827.752 79.8661 826.383 82.1021 824.233 83.8008C822.084 85.4647 819.415 86.2968 816.226 86.2969C813.695 86.2969 811.441 85.7251 809.465 84.5811C807.489 83.4024 805.929 81.7903 804.785 79.7451C803.676 77.6998 803.121 75.325 803.121 72.6211C803.121 69.8826 803.676 67.4906 804.785 65.4453C805.929 63.3654 807.489 61.7524 809.465 60.6084C811.441 59.4297 813.695 58.8408 816.226 58.8408ZM846.489 58.8408C848.985 58.8408 851.204 59.4127 853.146 60.5566C855.087 61.7006 856.612 63.2955 857.722 65.3408C858.866 67.3862 859.438 69.796 859.438 72.5693C859.437 75.3425 858.866 77.7517 857.722 79.7969C856.612 81.8422 855.07 83.4371 853.094 84.5811C851.118 85.725 848.882 86.2969 846.386 86.2969C843.924 86.2969 841.705 85.7251 839.729 84.5811C837.788 83.4371 836.246 81.8422 835.102 79.7969C833.992 77.7169 833.438 75.325 833.438 72.6211C833.438 69.8478 834.009 67.4379 835.153 65.3926C836.297 63.3126 837.858 61.7006 839.834 60.5566C841.81 59.4128 844.028 58.8409 846.489 58.8408ZM795.018 79.3291C796.023 79.3291 796.838 79.6578 797.462 80.3164C798.086 80.9404 798.397 81.7212 798.397 82.6572C798.397 83.5583 798.086 84.3385 797.462 84.9971C796.838 85.621 796.023 85.9326 795.018 85.9326C794.012 85.9326 793.18 85.621 792.521 84.9971C791.898 84.3385 791.585 83.5584 791.585 82.6572C791.585 81.7212 791.897 80.9404 792.521 80.3164C793.18 79.6579 794.012 79.3291 795.018 79.3291ZM309.809 45.3525H320.448V54.3926H309.809V71.6729C309.809 73.4859 310.208 74.7392 311.008 75.4326C311.808 76.1259 313.168 76.4726 315.088 76.4727H320.368V85.6729H313.088C310.261 85.6728 307.782 85.2459 305.648 84.3926C303.569 83.486 301.942 82.0196 300.769 79.9932C299.595 77.9132 299.008 75.086 299.008 71.5127V54.3926H292.128V45.3525H299.008L300.208 34.3926H309.809V45.3525ZM400.327 44.3926C403.687 44.3926 406.513 45.0862 408.807 46.4727C411.1 47.8593 412.834 49.8861 414.007 52.5527C415.233 55.2193 415.847 58.4994 415.847 62.3926V85.6729H405.127V63.4326C405.127 60.2328 404.433 57.7799 403.047 56.0732C401.714 54.3666 399.633 53.5127 396.807 53.5127C394.993 53.5128 393.367 53.9397 391.927 54.793C390.54 55.6462 389.447 56.8729 388.647 58.4727C387.847 60.0193 387.447 61.9133 387.447 64.1533V85.6729H376.647V45.3525H386.167L386.967 51.9131C388.193 49.6731 389.927 47.8593 392.167 46.4727C394.46 45.086 397.181 44.3926 400.327 44.3926ZM449.702 44.3926C453.062 44.3926 455.888 45.0861 458.182 46.4727C460.475 47.8593 462.209 49.8861 463.382 52.5527C464.608 55.2193 465.222 58.4994 465.222 62.3926V85.6729H454.502V63.4326C454.502 60.2328 453.808 57.7799 452.422 56.0732C451.089 54.3666 449.008 53.5127 446.182 53.5127C444.368 53.5128 442.742 53.9397 441.302 54.793C439.915 55.6462 438.822 56.8729 438.022 58.4727C437.222 60.0193 436.822 61.9133 436.822 64.1533V85.6729H426.022V45.3525H435.542L436.342 51.9131C437.568 49.6731 439.302 47.8593 441.542 46.4727C443.835 45.086 446.556 44.3926 449.702 44.3926ZM486.438 85.6729H475.637V45.3525H486.438V85.6729ZM649.578 61.7021L663.418 45.3525H676.139L659.926 63.9092L678.618 85.6729H665.179L649.578 65.6455V85.6729H638.778V28.0732H649.578V61.7021ZM698.309 45.3525H708.948V54.3926H698.309V71.6729C698.309 73.4859 698.708 74.7392 699.508 75.4326C700.308 76.1259 701.668 76.4726 703.588 76.4727H708.868V85.6729H701.588C698.761 85.6728 696.282 85.2459 694.148 84.3926C692.069 83.486 690.442 82.0196 689.269 79.9932C688.095 77.9132 687.508 75.086 687.508 71.5127V54.3926H680.628V45.3525H687.508L688.708 34.3926H698.309V45.3525ZM790.747 55.833H787.067C785.467 55.833 783.974 56.0192 782.587 56.3926C781.254 56.7659 780.081 57.3793 779.067 58.2324C778.054 59.0324 777.28 60.1528 776.747 61.5928C776.214 63.0328 775.947 64.8465 775.947 67.0332V85.6729H765.147V45.3525H774.747L775.787 52.793C776.747 51.033 777.947 49.5392 779.387 48.3125C780.88 47.0859 782.56 46.1259 784.427 45.4326C786.347 44.7393 788.454 44.3926 790.747 44.3926V55.833ZM895.871 58.8408C897.986 58.8409 899.806 59.274 901.331 60.1406C902.856 60.9726 904.017 62.2381 904.814 63.9365C905.612 65.6005 906.011 67.6808 906.011 70.1768V85.6729H900.862V70.6973C900.862 68.2706 900.36 66.4326 899.354 65.1846C898.384 63.9368 896.945 63.3126 895.039 63.3125C893.756 63.3125 892.612 63.6421 891.606 64.3008C890.601 64.9594 889.804 65.9132 889.215 67.1611C888.66 68.4091 888.383 69.9347 888.383 71.7373V85.6729H883.183V70.6973C883.183 68.2706 882.68 66.4326 881.675 65.1846C880.704 63.9366 879.265 63.3125 877.358 63.3125C876.145 63.3125 875.036 63.6421 874.03 64.3008C873.025 64.9594 872.228 65.9132 871.639 67.1611C871.049 68.4091 870.755 69.9347 870.755 71.7373V85.6729H865.555V59.4648H870.234L870.599 63.1572C871.431 61.8052 872.54 60.747 873.927 59.9844C875.313 59.2219 876.873 58.8408 878.606 58.8408C879.924 58.8408 881.12 59.0318 882.194 59.4131C883.269 59.7597 884.223 60.2965 885.055 61.0244C885.887 61.7524 886.563 62.6539 887.083 63.7285C888.019 62.2035 889.266 61.0072 890.826 60.1406C892.421 59.274 894.103 58.8408 895.871 58.8408ZM846.489 63.3125C845.103 63.3126 843.82 63.6593 842.642 64.3525C841.463 65.0459 840.509 66.086 839.781 67.4727C839.088 68.8247 838.742 70.524 838.742 72.5693C838.742 74.6143 839.088 76.3303 839.781 77.7168C840.509 79.0688 841.446 80.0918 842.59 80.7852C843.768 81.4784 845.034 81.8252 846.386 81.8252C847.807 81.8252 849.09 81.4783 850.233 80.7852C851.412 80.0918 852.349 79.0688 853.042 77.7168C853.77 76.3303 854.134 74.6144 854.134 72.5693C854.134 70.524 853.787 68.8247 853.094 67.4727C852.4 66.0861 851.465 65.0459 850.286 64.3525C849.142 63.6592 847.876 63.3125 846.489 63.3125ZM217.434 49.2725C214.66 49.2725 212.207 49.9392 210.073 51.2725C207.94 52.6058 206.26 54.4998 205.033 56.9531C203.86 59.353 203.273 62.2062 203.273 65.5127C203.273 68.8194 203.887 71.7 205.113 74.1533C206.34 76.5531 208.02 78.4197 210.153 79.7529C212.287 81.0862 214.714 81.7529 217.434 81.7529C220.26 81.7529 222.713 81.0861 224.793 79.7529C226.926 78.4197 228.58 76.5264 229.753 74.0732C230.98 71.6199 231.594 68.766 231.594 65.5127C231.594 62.2595 230.98 59.4064 229.753 56.9531C228.58 54.4998 226.926 52.6058 224.793 51.2725C222.713 49.9393 220.26 49.2725 217.434 49.2725ZM609.87 53.7529C608.163 53.7529 606.59 54.2066 605.15 55.1133C603.71 55.9666 602.563 57.2732 601.71 59.0332C600.91 60.7398 600.51 62.8996 600.51 65.5127C600.51 68.126 600.91 70.3132 601.71 72.0732C602.563 73.8331 603.684 75.1399 605.07 75.9932C606.51 76.8464 608.084 77.2724 609.79 77.2725C611.603 77.2725 613.203 76.8463 614.59 75.9932C616.03 75.1399 617.15 73.8331 617.95 72.0732C618.804 70.3132 619.23 68.126 619.23 65.5127C619.23 62.8996 618.803 60.7398 617.95 59.0332C617.15 57.2732 616.03 55.9666 614.59 55.1133C613.203 54.2066 611.63 53.7529 609.87 53.7529ZM560.408 53.833C558.382 53.833 556.542 54.3394 554.889 55.3525C553.235 56.3125 551.929 57.6728 550.969 59.4326C550.062 61.1926 549.608 63.1927 549.608 65.4326C549.608 67.7793 550.062 69.8328 550.969 71.5928C551.929 73.3527 553.209 74.7396 554.809 75.7529C556.462 76.7128 558.328 77.1924 560.408 77.1924C562.541 77.1924 564.408 76.7128 566.008 75.7529C567.661 74.7396 568.942 73.3528 569.849 71.5928C570.755 69.8328 571.208 67.8059 571.208 65.5127C571.208 63.2194 570.755 61.1926 569.849 59.4326C568.942 57.6726 567.661 56.3125 566.008 55.3525C564.408 54.3394 562.541 53.833 560.408 53.833ZM266.963 49.1924C264.563 49.1924 262.322 49.753 260.242 50.873C258.216 51.9397 256.562 53.5397 255.282 55.6729C254.256 57.4139 253.66 59.5475 253.493 62.0732H279.923C279.816 57.9667 278.536 54.7927 276.083 52.5527C273.683 50.3128 270.643 49.1924 266.963 49.1924ZM347.882 53.1924C346.069 53.1924 344.388 53.6194 342.842 54.4727C341.295 55.2726 340.069 56.526 339.162 58.2324C338.676 59.2051 338.328 60.3256 338.119 61.5928H356.922C356.762 58.9795 355.829 56.9259 354.122 55.4326C352.469 53.9393 350.388 53.1924 347.882 53.1924ZM736.382 53.1924C734.569 53.1924 732.888 53.6194 731.342 54.4727C729.795 55.2726 728.569 56.526 727.662 58.2324C727.176 59.2051 726.828 60.3256 726.619 61.5928H745.422C745.262 58.9795 744.329 56.9259 742.622 55.4326C740.969 53.9393 738.888 53.1924 736.382 53.1924ZM481.077 27.6729C483.05 27.6729 484.65 28.2594 485.877 29.4326C487.157 30.5526 487.797 31.9929 487.797 33.7529C487.797 35.5129 487.157 36.98 485.877 38.1533C484.65 39.2731 483.05 39.833 481.077 39.833C479.157 39.833 477.557 39.2731 476.277 38.1533C475.051 36.98 474.438 35.5129 474.438 33.7529C474.438 31.9929 475.051 30.5526 476.277 29.4326C477.557 28.2595 479.157 27.6729 481.077 27.6729Z" fill="white"/>
<path d="M207.093 111.079C209.565 111.079 211.737 111.631 213.609 112.735C215.505 113.839 216.969 115.375 218.001 117.343C219.057 119.287 219.585 121.543 219.585 124.111C219.585 126.679 219.057 128.947 218.001 130.915C216.969 132.859 215.505 134.383 213.609 135.487C211.737 136.591 209.565 137.144 207.093 137.144C204.645 137.144 202.485 136.591 200.613 135.487C198.741 134.383 197.266 132.859 196.186 130.915C195.13 128.947 194.601 126.679 194.601 124.111C194.601 121.543 195.13 119.287 196.186 117.343C197.266 115.375 198.741 113.839 200.613 112.735C202.485 111.631 204.645 111.079 207.093 111.079ZM362.585 111.079C365.633 111.079 368.141 111.847 370.109 113.383C372.077 114.919 373.301 117.079 373.781 119.863H368.237C367.949 118.519 367.313 117.488 366.329 116.768C365.369 116.024 364.097 115.651 362.514 115.651C361.05 115.651 359.789 115.999 358.733 116.695C357.701 117.367 356.909 118.339 356.357 119.611C355.805 120.883 355.529 122.396 355.529 124.147C355.529 125.899 355.806 127.411 356.357 128.683C356.909 129.931 357.701 130.903 358.733 131.599C359.789 132.271 361.05 132.607 362.514 132.607C364.097 132.607 365.369 132.271 366.329 131.599C367.289 130.903 367.925 129.943 368.237 128.719H373.781C373.301 131.335 372.077 133.399 370.109 134.911C368.141 136.399 365.633 137.144 362.585 137.144C360.065 137.144 357.893 136.603 356.069 135.523C354.245 134.419 352.841 132.895 351.857 130.951C350.873 128.983 350.381 126.715 350.381 124.147C350.381 121.579 350.873 119.311 351.857 117.343C352.841 115.375 354.245 113.839 356.069 112.735C357.893 111.631 360.065 111.079 362.585 111.079ZM391.682 111.079C394.154 111.079 396.325 111.631 398.197 112.735C400.093 113.839 401.558 115.375 402.59 117.343C403.646 119.287 404.174 121.543 404.174 124.111C404.174 126.679 403.646 128.947 402.59 130.915C401.558 132.859 400.093 134.383 398.197 135.487C396.325 136.591 394.153 137.144 391.682 137.144C389.234 137.144 387.074 136.591 385.202 135.487C383.33 134.383 381.853 132.859 380.773 130.915C379.718 128.947 379.189 126.679 379.189 124.111C379.189 121.543 379.717 119.287 380.773 117.343C381.853 115.375 383.33 113.839 385.202 112.735C387.074 111.631 389.234 111.079 391.682 111.079ZM446.655 111.079C449.703 111.079 452.211 111.847 454.179 113.383C456.147 114.919 457.372 117.079 457.852 119.863H452.307C452.019 118.519 451.383 117.488 450.399 116.768C449.439 116.024 448.167 115.651 446.583 115.651C445.119 115.651 443.859 115.999 442.803 116.695C441.771 117.367 440.979 118.339 440.427 119.611C439.875 120.883 439.599 122.396 439.599 124.147C439.599 125.899 439.875 127.411 440.427 128.683C440.979 129.93 441.771 130.903 442.803 131.599C443.859 132.271 445.119 132.607 446.583 132.607C448.167 132.607 449.439 132.271 450.399 131.599C451.359 130.903 451.995 129.943 452.307 128.719H457.852C457.372 131.335 456.147 133.399 454.179 134.911C452.211 136.399 449.703 137.144 446.655 137.144C444.135 137.144 441.963 136.603 440.139 135.523C438.315 134.419 436.911 132.895 435.927 130.951C434.943 128.983 434.451 126.715 434.451 124.147C434.451 121.579 434.943 119.311 435.927 117.343C436.911 115.375 438.315 113.839 440.139 112.735C441.963 111.631 444.135 111.079 446.655 111.079ZM544.64 111.079C547.616 111.079 550.076 111.799 552.02 113.239C553.988 114.655 555.26 116.624 555.836 119.144H550.22C549.86 118.064 549.2 117.223 548.24 116.623C547.304 116.023 546.092 115.723 544.604 115.723C542.972 115.723 541.592 116.072 540.464 116.768C539.336 117.464 538.484 118.459 537.908 119.755C537.332 121.027 537.044 122.551 537.044 124.327C537.044 126.103 537.332 127.615 537.908 128.863C538.508 130.111 539.348 131.059 540.428 131.707C541.532 132.355 542.828 132.679 544.315 132.679C546.475 132.679 548.108 132.103 549.212 130.951C550.34 129.775 551.012 128.287 551.228 126.487H545.144V122.743H556.304V136.711H551.66L551.264 133.615C550.736 134.359 550.124 134.995 549.428 135.523C548.732 136.051 547.915 136.447 546.979 136.711C546.068 136.999 545.011 137.144 543.812 137.144C541.412 137.144 539.324 136.615 537.548 135.56C535.772 134.48 534.38 132.979 533.372 131.06C532.388 129.116 531.896 126.859 531.896 124.291C531.896 121.699 532.4 119.419 533.408 117.451C534.44 115.459 535.904 113.899 537.8 112.771C539.72 111.643 542 111.079 544.64 111.079ZM242.307 128.611V111.511H247.347V136.711H242.307L230.895 119.647V136.711H225.854V111.511H230.895L242.307 128.611ZM259.457 132.787H270.473V136.711H254.417V111.511H259.457V132.787ZM281.832 136.711H276.792V111.511H281.832V136.711ZM305.354 128.611V111.511H310.394V136.711H305.354L293.941 119.647V136.711H288.901V111.511H293.941L305.354 128.611ZM334.132 115.579H322.504V121.951H333.052V125.875H322.504V132.644H334.132V136.711H317.464V111.511H334.132V115.579ZM431.324 136.711H425.996L424.043 131.06H414.46L412.496 136.711H407.24L416.421 111.511H422.145L431.324 136.711ZM469.128 121.807H479.964V111.511H485.004V136.711H479.964V125.875H469.128V136.711H464.088V111.511H469.128V121.807ZM497.092 136.711H492.052V111.511H497.092V136.711ZM520.613 128.611V111.511H525.653V136.711H520.613L509.201 119.647V136.711H504.161V111.511H509.201L520.613 128.611ZM207.093 115.615C205.605 115.615 204.309 115.963 203.205 116.659C202.125 117.355 201.273 118.339 200.649 119.611C200.049 120.859 199.749 122.359 199.749 124.111C199.749 125.863 200.049 127.376 200.649 128.647C201.273 129.895 202.125 130.868 203.205 131.563C204.309 132.259 205.605 132.607 207.093 132.607C208.605 132.607 209.913 132.259 211.017 131.563C212.121 130.868 212.973 129.895 213.573 128.647C214.173 127.376 214.473 125.863 214.473 124.111C214.473 122.359 214.173 120.859 213.573 119.611C212.973 118.339 212.121 117.355 211.017 116.659C209.913 115.963 208.605 115.615 207.093 115.615ZM391.682 115.615C390.194 115.615 388.898 115.963 387.794 116.659C386.714 117.355 385.861 118.339 385.237 119.611C384.637 120.859 384.338 122.359 384.338 124.111C384.338 125.863 384.637 127.376 385.237 128.647C385.861 129.895 386.714 130.868 387.794 131.563C388.898 132.259 390.194 132.607 391.682 132.607C393.193 132.607 394.502 132.259 395.605 131.563C396.709 130.867 397.562 129.895 398.162 128.647C398.762 127.376 399.061 125.863 399.062 124.111C399.062 122.359 398.762 120.859 398.162 119.611C397.562 118.339 396.709 117.355 395.605 116.659C394.501 115.963 393.194 115.615 391.682 115.615ZM415.824 127.135H422.687L419.265 117.235L415.824 127.135Z" fill="#CCCDC3"/>
<defs>
<filter id="filter0_d_4_237" x="6.73268" y="5.12979" width="156.458" height="156.458" filterUnits="userSpaceOnUse" color-interpolation-filters="sRGB">
<feFlood flood-opacity="0" result="BackgroundImageFix"/>
<feColorMatrix in="SourceAlpha" type="matrix" values="0 0 0 0 0 0 0 0 0 0 0 0 0 0 0 0 0 0 127 0" result="hardAlpha"/>
<feOffset dx="-2.56489" dy="2.56489"/>
<feGaussianBlur stdDeviation="10.2595"/>
<feComposite in2="hardAlpha" operator="out"/>
<feColorMatrix type="matrix" values="0 0 0 0 0 0 0 0 0 0 0 0 0 0 0 0 0 0 0.2 0"/>
<feBlend mode="normal" in2="BackgroundImageFix" result="effect1_dropShadow_4_237"/>
<feBlend mode="normal" in="SourceGraphic" in2="effect1_dropShadow_4_237" result="shape"/>
</filter>
<radialGradient id="paint0_radial_4_237" cx="0" cy="0" r="1" gradientUnits="userSpaceOnUse" gradientTransform="translate(131.45 42.1603) rotate(139.389) scale(102.204)">
<stop stop-color="#F7FF9C"/>
<stop offset="1" stop-color="#F7FF9C" stop-opacity="0"/>
</radialGradient>
<linearGradient id="paint1_linear_4_237" x1="50.6777" y1="117.588" x2="28.4053" y2="140.593" gradientUnits="userSpaceOnUse">
<stop offset="0.105769" stop-color="#D4F000" stop-opacity="0.75"/>
<stop offset="1" stop-color="#CEE611" stop-opacity="0.4"/>
</linearGradient>
<clipPath id="clip0_4_237">
<rect width="168" height="168" rx="44.8" fill="white"/>
</clipPath>
</defs>
</svg>
